<svg xmlns="http://www.w3.org/2000/svg" viewBox="0 0 617.98 675.92"><defs><style>.cls-1,.cls-2,.cls-3{fill:none;stroke:#000;stroke-linecap:round;stroke-linejoin:round;}.cls-1{stroke-width:0;}.cls-2{stroke-width:5.98px;}.cls-3{stroke-width:4.48px;}</style></defs><g id="Blacks"><g id="LWPOLYLINE"><polyline class="cls-1" points="275.21 517.91 230.35 468.61 187.41 468.61 200.14 506.51 221.02 518.65 275.21 518.65"/></g><g id="HATCH"><polygon points="275.21 517.91 230.35 468.61 187.41 468.61 200.14 506.51 221.02 518.65 275.21 518.65 275.21 517.91"/></g><g id="LWPOLYLINE-2" data-name="LWPOLYLINE"><polyline class="cls-1" points="345.5 517.91 390.36 468.61 433.3 468.61 420.56 506.51 399.69 518.65 345.5 518.65"/></g><g id="HATCH-2" data-name="HATCH"><polygon points="345.5 517.91 390.36 468.61 433.3 468.61 420.56 506.51 399.69 518.65 345.5 518.65 345.5 517.91"/></g><g id="LWPOLYLINE-3" data-name="LWPOLYLINE"><polygon class="cls-1" points="310.1 612.2 284.49 623.01 284.49 638.11 310.02 656.33 333.5 638.05 333.5 622.9 310.1 612.2"/></g><g id="HATCH-3" data-name="HATCH"><polygon points="310.1 612.2 284.49 623.01 284.49 638.11 310.02 656.33 333.5 638.05 333.5 622.9 310.1 612.2"/></g><g id="LWPOLYLINE-4" data-name="LWPOLYLINE"><polygon class="cls-1" points="614.99 2.99 614.99 61.92 549.1 126.62 503.05 147.35 576.94 26.98 614.99 2.99"/></g><g id="HATCH-4" data-name="HATCH"><polygon points="614.99 2.99 614.99 61.92 549.1 126.62 503.05 147.35 576.94 26.98 614.99 2.99"/></g><g id="LWPOLYLINE-5" data-name="LWPOLYLINE"><polygon class="cls-1" points="4 4.72 4 63.65 69.89 128.35 115.94 149.08 42.05 28.71 4 4.72"/></g><g id="HATCH-5" data-name="HATCH"><polygon points="4 4.72 4 63.65 69.89 128.35 115.94 149.08 42.05 28.71 4 4.72"/></g></g><g id="Head"><g id="LWPOLYLINE-6" data-name="LWPOLYLINE"><polyline class="cls-2" points="308.99 244.83 235.25 252.23 117.99 150.07 44.25 29.25 2.99 2.99 2.99 59.06 25.89 182.25 26.29 289.25 88.67 376.11 106.04 422.7 106.04 505.62 176.32 569.98 242.26 600.38 264.37 650.13 308.99 671.85"/></g><g id="LWPOLYLINE-7" data-name="LWPOLYLINE"><polyline class="cls-2" points="308.99 244.83 382.73 252.23 499.99 150.07 573.73 29.25 614.99 2.99 614.99 59.06 592.09 182.25 591.7 289.25 529.31 376.11 511.94 422.7 511.94 505.62 441.66 569.98 375.72 600.38 353.61 650.13 308.99 671.85"/></g><g id="LWPOLYLINE-8" data-name="LWPOLYLINE"><polyline class="cls-2" points="177.69 567.16 215.99 544.26 275.21 520.17 248.36 439.63 184 400.54 177.69 344.67 113.33 268.46 71.08 125.73"/></g><g id="LWPOLYLINE-9" data-name="LWPOLYLINE"><polyline class="cls-2" points="439.21 567.16 400.91 544.26 341.69 520.17 368.54 439.63 432.9 400.54 439.21 344.67 503.57 268.46 545.82 125.73"/></g><g id="LINE"><line class="cls-2" x1="241.75" y1="601.23" x2="308.67" y2="539.64"/></g><g id="LINE-2" data-name="LINE"><line class="cls-2" x1="372.66" y1="601.23" x2="308.67" y2="539.64"/></g><g id="LWPOLYLINE-10" data-name="LWPOLYLINE"><rect class="cls-3" x="310.08" y="674.39" width="0.59" height="0.59" transform="translate(-387.56 415.66) rotate(-45)"/></g></g></svg>